<?xml version="1.0" ?><svg height="24px" version="1.1" viewBox="0 0 24 24" width="24px" xmlns="http://www.w3.org/2000/svg" xmlns:sketch="http://www.bohemiancoding.com/sketch/ns" xmlns:xlink="http://www.w3.org/1999/xlink"><title/><desc/><defs/><g fill="none" fill-rule="evenodd" id="miu" stroke="none" stroke-width="1"><g id="Artboard-1" transform="translate(-539.000000, -407.000000)"><g id="slice" transform="translate(215.000000, 119.000000)"/><path d="M555.477276,421.355956 C556.43712,419.979383 557,418.305425 557,416.5 C557,411.805579 553.194421,408 548.5,408 C543.805579,408 540,411.805579 540,416.5 C540,421.194421 543.805579,425 548.5,425 C550.305148,425 551.978868,424.437293 553.355321,423.477719 L553.355892,423.477212 L559.659433,429.780753 C559.776309,429.897629 559.962206,429.901225 560.082211,429.78122 L561.78122,428.082211 C561.897838,427.965593 561.892417,427.771097 561.780753,427.659433 L555.477276,421.355956 Z M548.5,423 C552.089851,423 555,420.089851 555,416.5 C555,412.910149 552.089851,410 548.5,410 C544.910149,410 542,412.910149 542,416.5 C542,420.089851 544.910149,423 548.5,423 Z" fill="#000000" id="common-search-lookup-glyph"/></g></g></svg>